<mxfile host="app.diagrams.net" modified="2023-09-07T00:03:09.584Z" agent="Mozilla/5.0 (Macintosh; Intel Mac OS X 10_15_7) AppleWebKit/605.1.15 (KHTML, like Gecko) Version/16.5.2 Safari/605.1.15" etag="gzUiv-aQbvuFUFHZwUnP" version="21.7.2" type="device">
  <diagram name="페이지-1" id="h0h2GD0hXa2a-9RTqdhM">
    <mxGraphModel dx="954" dy="675" grid="1" gridSize="10" guides="1" tooltips="1" connect="1" arrows="1" fold="1" page="1" pageScale="1" pageWidth="827" pageHeight="1169" math="0" shadow="0">
      <root>
        <mxCell id="0" />
        <mxCell id="1" parent="0" />
        <mxCell id="BuVVMlvjGNhDkNPwbJEQ-1" value="" style="ellipse;whiteSpace=wrap;html=1;aspect=fixed;" vertex="1" parent="1">
          <mxGeometry x="420" y="20" width="50" height="50" as="geometry" />
        </mxCell>
        <mxCell id="BuVVMlvjGNhDkNPwbJEQ-2" value="booklist" style="rounded=1;whiteSpace=wrap;html=1;" vertex="1" parent="1">
          <mxGeometry x="515" y="240" width="120" height="30" as="geometry" />
        </mxCell>
        <mxCell id="BuVVMlvjGNhDkNPwbJEQ-3" style="edgeStyle=orthogonalEdgeStyle;rounded=0;orthogonalLoop=1;jettySize=auto;html=1;exitX=0.5;exitY=1;exitDx=0;exitDy=0;" edge="1" parent="1" source="BuVVMlvjGNhDkNPwbJEQ-2" target="BuVVMlvjGNhDkNPwbJEQ-2">
          <mxGeometry relative="1" as="geometry" />
        </mxCell>
        <mxCell id="BuVVMlvjGNhDkNPwbJEQ-4" value="joinin" style="rounded=1;whiteSpace=wrap;html=1;" vertex="1" parent="1">
          <mxGeometry x="230" y="240" width="120" height="30" as="geometry" />
        </mxCell>
        <mxCell id="BuVVMlvjGNhDkNPwbJEQ-5" value="share" style="rounded=1;whiteSpace=wrap;html=1;" vertex="1" parent="1">
          <mxGeometry x="685" y="240" width="120" height="30" as="geometry" />
        </mxCell>
        <mxCell id="BuVVMlvjGNhDkNPwbJEQ-7" value="login" style="rhombus;whiteSpace=wrap;html=1;" vertex="1" parent="1">
          <mxGeometry x="405" y="160" width="80" height="50" as="geometry" />
        </mxCell>
        <mxCell id="BuVVMlvjGNhDkNPwbJEQ-8" value="" style="endArrow=classic;html=1;rounded=1;exitX=1;exitY=0.5;exitDx=0;exitDy=0;entryX=0.5;entryY=0;entryDx=0;entryDy=0;" edge="1" parent="1" source="BuVVMlvjGNhDkNPwbJEQ-7" target="BuVVMlvjGNhDkNPwbJEQ-5">
          <mxGeometry width="50" height="50" relative="1" as="geometry">
            <mxPoint x="495" y="435" as="sourcePoint" />
            <mxPoint x="545" y="385" as="targetPoint" />
            <Array as="points">
              <mxPoint x="745" y="185" />
            </Array>
          </mxGeometry>
        </mxCell>
        <mxCell id="BuVVMlvjGNhDkNPwbJEQ-9" value="로그인 O" style="text;html=1;strokeColor=none;fillColor=none;align=center;verticalAlign=middle;whiteSpace=wrap;rounded=0;" vertex="1" parent="1">
          <mxGeometry x="485" y="160" width="60" height="30" as="geometry" />
        </mxCell>
        <mxCell id="BuVVMlvjGNhDkNPwbJEQ-10" value="" style="endArrow=classic;html=1;rounded=1;exitX=0;exitY=0.5;exitDx=0;exitDy=0;" edge="1" parent="1" source="BuVVMlvjGNhDkNPwbJEQ-7" target="BuVVMlvjGNhDkNPwbJEQ-4">
          <mxGeometry width="50" height="50" relative="1" as="geometry">
            <mxPoint x="495" y="195" as="sourcePoint" />
            <mxPoint x="605" y="275" as="targetPoint" />
            <Array as="points">
              <mxPoint x="290" y="185" />
            </Array>
          </mxGeometry>
        </mxCell>
        <mxCell id="BuVVMlvjGNhDkNPwbJEQ-11" value="로그인 X" style="text;html=1;strokeColor=none;fillColor=none;align=center;verticalAlign=middle;whiteSpace=wrap;rounded=0;" vertex="1" parent="1">
          <mxGeometry x="350" y="160" width="60" height="30" as="geometry" />
        </mxCell>
        <mxCell id="BuVVMlvjGNhDkNPwbJEQ-12" value="" style="endArrow=classic;html=1;rounded=0;" edge="1" parent="1">
          <mxGeometry width="50" height="50" relative="1" as="geometry">
            <mxPoint x="545" y="185" as="sourcePoint" />
            <mxPoint x="545" y="240" as="targetPoint" />
          </mxGeometry>
        </mxCell>
        <mxCell id="BuVVMlvjGNhDkNPwbJEQ-13" value="" style="endArrow=none;html=1;rounded=0;exitX=0.5;exitY=0;exitDx=0;exitDy=0;entryX=0.5;entryY=1;entryDx=0;entryDy=0;" edge="1" parent="1" source="BuVVMlvjGNhDkNPwbJEQ-7" target="BuVVMlvjGNhDkNPwbJEQ-15">
          <mxGeometry width="50" height="50" relative="1" as="geometry">
            <mxPoint x="395" y="380" as="sourcePoint" />
            <mxPoint x="445" y="120" as="targetPoint" />
            <Array as="points">
              <mxPoint x="445" y="140" />
            </Array>
          </mxGeometry>
        </mxCell>
        <mxCell id="BuVVMlvjGNhDkNPwbJEQ-15" value="main page" style="rounded=1;whiteSpace=wrap;html=1;" vertex="1" parent="1">
          <mxGeometry x="385" y="100" width="120" height="30" as="geometry" />
        </mxCell>
        <mxCell id="BuVVMlvjGNhDkNPwbJEQ-16" value="" style="endArrow=none;html=1;rounded=0;entryX=0.5;entryY=1;entryDx=0;entryDy=0;" edge="1" parent="1" target="BuVVMlvjGNhDkNPwbJEQ-1">
          <mxGeometry width="50" height="50" relative="1" as="geometry">
            <mxPoint x="445" y="100" as="sourcePoint" />
            <mxPoint x="455" y="140" as="targetPoint" />
            <Array as="points">
              <mxPoint x="445" y="90" />
            </Array>
          </mxGeometry>
        </mxCell>
        <mxCell id="BuVVMlvjGNhDkNPwbJEQ-18" value="이름&lt;br&gt;아이디(중복확인)&lt;br&gt;비밀번호&lt;br&gt;이메일&lt;br&gt;SNS(카카오톡, 구글, 네이버)" style="text;html=1;strokeColor=none;fillColor=none;align=left;verticalAlign=middle;whiteSpace=wrap;rounded=0;" vertex="1" parent="1">
          <mxGeometry x="230" y="300" width="215" height="30" as="geometry" />
        </mxCell>
        <mxCell id="BuVVMlvjGNhDkNPwbJEQ-19" style="edgeStyle=orthogonalEdgeStyle;rounded=0;orthogonalLoop=1;jettySize=auto;html=1;exitX=0.5;exitY=1;exitDx=0;exitDy=0;" edge="1" parent="1" source="BuVVMlvjGNhDkNPwbJEQ-18" target="BuVVMlvjGNhDkNPwbJEQ-18">
          <mxGeometry relative="1" as="geometry" />
        </mxCell>
        <mxCell id="BuVVMlvjGNhDkNPwbJEQ-20" value="아이디/비밀번호 입력&lt;br&gt;SNS - 카카오톡, 구글, 네이버&lt;br&gt;아이디/비밀번호 찾기" style="text;html=1;strokeColor=none;fillColor=none;align=left;verticalAlign=middle;whiteSpace=wrap;rounded=0;" vertex="1" parent="1">
          <mxGeometry x="365" y="220" width="215" height="30" as="geometry" />
        </mxCell>
        <mxCell id="BuVVMlvjGNhDkNPwbJEQ-23" value="읽고싶은 책&lt;br&gt;읽은 책&lt;br&gt;&lt;br&gt;책 후기/인상깊었던 문장&lt;br&gt;책 추천" style="text;html=1;strokeColor=none;fillColor=none;align=left;verticalAlign=middle;whiteSpace=wrap;rounded=0;" vertex="1" parent="1">
          <mxGeometry x="515" y="300" width="130" height="30" as="geometry" />
        </mxCell>
        <mxCell id="BuVVMlvjGNhDkNPwbJEQ-24" value="책 공유하기" style="text;html=1;strokeColor=none;fillColor=none;align=left;verticalAlign=middle;whiteSpace=wrap;rounded=0;" vertex="1" parent="1">
          <mxGeometry x="690" y="270" width="90" height="30" as="geometry" />
        </mxCell>
        <mxCell id="BuVVMlvjGNhDkNPwbJEQ-26" value="" style="endArrow=none;html=1;rounded=0;entryX=0.5;entryY=1;entryDx=0;entryDy=0;exitX=0.5;exitY=0;exitDx=0;exitDy=0;" edge="1" parent="1" source="BuVVMlvjGNhDkNPwbJEQ-27" target="BuVVMlvjGNhDkNPwbJEQ-2">
          <mxGeometry width="50" height="50" relative="1" as="geometry">
            <mxPoint x="575" y="370" as="sourcePoint" />
            <mxPoint x="515" y="330" as="targetPoint" />
          </mxGeometry>
        </mxCell>
        <mxCell id="BuVVMlvjGNhDkNPwbJEQ-27" value="읽고싶은 책 등록" style="rounded=1;whiteSpace=wrap;html=1;" vertex="1" parent="1">
          <mxGeometry x="515" y="360" width="120" height="30" as="geometry" />
        </mxCell>
        <mxCell id="BuVVMlvjGNhDkNPwbJEQ-28" value="책 제목&lt;br&gt;책 저자&lt;br&gt;" style="text;html=1;strokeColor=none;fillColor=none;align=center;verticalAlign=middle;whiteSpace=wrap;rounded=0;" vertex="1" parent="1">
          <mxGeometry x="505" y="400" width="60" height="30" as="geometry" />
        </mxCell>
        <mxCell id="BuVVMlvjGNhDkNPwbJEQ-29" value="읽은 책 등록" style="rounded=1;whiteSpace=wrap;html=1;" vertex="1" parent="1">
          <mxGeometry x="515" y="460" width="120" height="30" as="geometry" />
        </mxCell>
        <mxCell id="BuVVMlvjGNhDkNPwbJEQ-30" value="" style="endArrow=none;html=1;rounded=0;entryX=0.5;entryY=1;entryDx=0;entryDy=0;exitX=0.5;exitY=0;exitDx=0;exitDy=0;" edge="1" parent="1" source="BuVVMlvjGNhDkNPwbJEQ-29" target="BuVVMlvjGNhDkNPwbJEQ-27">
          <mxGeometry width="50" height="50" relative="1" as="geometry">
            <mxPoint x="585" y="390" as="sourcePoint" />
            <mxPoint x="585" y="280" as="targetPoint" />
          </mxGeometry>
        </mxCell>
        <mxCell id="BuVVMlvjGNhDkNPwbJEQ-31" value="책 제목&lt;br&gt;책 저자&lt;br&gt;책 내용(요약, 한줄평)" style="text;html=1;strokeColor=none;fillColor=none;align=left;verticalAlign=middle;whiteSpace=wrap;rounded=0;" vertex="1" parent="1">
          <mxGeometry x="515" y="504" width="120" height="30" as="geometry" />
        </mxCell>
        <mxCell id="BuVVMlvjGNhDkNPwbJEQ-32" value="" style="endArrow=classic;html=1;rounded=1;exitX=0;exitY=0.5;exitDx=0;exitDy=0;entryX=0;entryY=0.5;entryDx=0;entryDy=0;" edge="1" parent="1" source="BuVVMlvjGNhDkNPwbJEQ-27" target="BuVVMlvjGNhDkNPwbJEQ-29">
          <mxGeometry width="50" height="50" relative="1" as="geometry">
            <mxPoint x="485" y="350" as="sourcePoint" />
            <mxPoint x="535" y="300" as="targetPoint" />
            <Array as="points">
              <mxPoint x="485" y="375" />
              <mxPoint x="485" y="430" />
              <mxPoint x="485" y="475" />
            </Array>
          </mxGeometry>
        </mxCell>
        <mxCell id="BuVVMlvjGNhDkNPwbJEQ-33" value="" style="endArrow=classic;html=1;rounded=1;exitX=1;exitY=0.5;exitDx=0;exitDy=0;entryX=0;entryY=0.5;entryDx=0;entryDy=0;" edge="1" parent="1" source="BuVVMlvjGNhDkNPwbJEQ-29" target="BuVVMlvjGNhDkNPwbJEQ-5">
          <mxGeometry width="50" height="50" relative="1" as="geometry">
            <mxPoint x="485" y="350" as="sourcePoint" />
            <mxPoint x="535" y="300" as="targetPoint" />
            <Array as="points">
              <mxPoint x="665" y="475" />
              <mxPoint x="665" y="360" />
              <mxPoint x="665" y="255" />
            </Array>
          </mxGeometry>
        </mxCell>
        <mxCell id="BuVVMlvjGNhDkNPwbJEQ-34" value="게시판" style="rounded=1;whiteSpace=wrap;html=1;" vertex="1" parent="1">
          <mxGeometry x="80" y="240" width="120" height="30" as="geometry" />
        </mxCell>
        <mxCell id="BuVVMlvjGNhDkNPwbJEQ-35" value="" style="endArrow=classic;html=1;rounded=1;entryX=0.5;entryY=0;entryDx=0;entryDy=0;exitX=0;exitY=0.5;exitDx=0;exitDy=0;" edge="1" parent="1" source="BuVVMlvjGNhDkNPwbJEQ-7" target="BuVVMlvjGNhDkNPwbJEQ-34">
          <mxGeometry width="50" height="50" relative="1" as="geometry">
            <mxPoint x="410" y="180" as="sourcePoint" />
            <mxPoint x="490" y="300" as="targetPoint" />
            <Array as="points">
              <mxPoint x="140" y="185" />
            </Array>
          </mxGeometry>
        </mxCell>
        <mxCell id="BuVVMlvjGNhDkNPwbJEQ-36" value="공지사항&lt;br&gt;FAQ, 질문게시판&lt;br&gt;책 요청 게시판&lt;br&gt;서비스 소개" style="text;html=1;strokeColor=none;fillColor=none;align=left;verticalAlign=middle;whiteSpace=wrap;rounded=0;" vertex="1" parent="1">
          <mxGeometry x="80" y="293" width="110" height="30" as="geometry" />
        </mxCell>
      </root>
    </mxGraphModel>
  </diagram>
</mxfile>
